<svg xmlns="http://www.w3.org/2000/svg" width="640" height="640" viewBox="0 0 640 640">
  <rect width="640" height="640" fill="#fff"/>

  <!-- finder patterns -->
  <g fill="#2b0607">
    <rect x="56" y="56" width="168" height="168" rx="18"/>
    <rect x="416" y="56" width="168" height="168" rx="18"/>
    <rect x="56" y="416" width="168" height="168" rx="18"/>
  </g>
  <g fill="#fff">
    <rect x="88" y="88" width="104" height="104" rx="14"/>
    <rect x="448" y="88" width="104" height="104" rx="14"/>
    <rect x="88" y="448" width="104" height="104" rx="14"/>
  </g>
  <g fill="#2b0607">
    <rect x="116" y="116" width="48" height="48" rx="10"/>
    <rect x="476" y="116" width="48" height="48" rx="10"/>
    <rect x="116" y="476" width="48" height="48" rx="10"/>
  </g>

  <!-- pseudo data modules -->
  <g fill="#2b0607" opacity="0.95">
    <rect x="272" y="84" width="24" height="24" rx="6"/>
    <rect x="312" y="84" width="24" height="24" rx="6"/>
    <rect x="352" y="84" width="24" height="24" rx="6"/>
    <rect x="272" y="124" width="24" height="24" rx="6"/>
    <rect x="352" y="124" width="24" height="24" rx="6"/>
    <rect x="272" y="164" width="24" height="24" rx="6"/>
    <rect x="312" y="164" width="24" height="24" rx="6"/>

    <rect x="252" y="272" width="24" height="24" rx="6"/>
    <rect x="292" y="272" width="24" height="24" rx="6"/>
    <rect x="332" y="272" width="24" height="24" rx="6"/>
    <rect x="372" y="272" width="24" height="24" rx="6"/>
    <rect x="252" y="312" width="24" height="24" rx="6"/>
    <rect x="372" y="312" width="24" height="24" rx="6"/>
    <rect x="252" y="352" width="24" height="24" rx="6"/>
    <rect x="292" y="352" width="24" height="24" rx="6"/>
    <rect x="332" y="352" width="24" height="24" rx="6"/>
    <rect x="372" y="352" width="24" height="24" rx="6"/>

    <rect x="84" y="272" width="24" height="24" rx="6"/>
    <rect x="124" y="272" width="24" height="24" rx="6"/>
    <rect x="164" y="272" width="24" height="24" rx="6"/>
    <rect x="204" y="272" width="24" height="24" rx="6"/>
    <rect x="124" y="312" width="24" height="24" rx="6"/>
    <rect x="204" y="312" width="24" height="24" rx="6"/>
    <rect x="84" y="352" width="24" height="24" rx="6"/>
    <rect x="164" y="352" width="24" height="24" rx="6"/>
    <rect x="204" y="392" width="24" height="24" rx="6"/>

    <rect x="416" y="272" width="24" height="24" rx="6"/>
    <rect x="456" y="272" width="24" height="24" rx="6"/>
    <rect x="496" y="272" width="24" height="24" rx="6"/>
    <rect x="536" y="272" width="24" height="24" rx="6"/>
    <rect x="416" y="312" width="24" height="24" rx="6"/>
    <rect x="496" y="312" width="24" height="24" rx="6"/>
    <rect x="536" y="312" width="24" height="24" rx="6"/>
    <rect x="456" y="352" width="24" height="24" rx="6"/>
    <rect x="536" y="352" width="24" height="24" rx="6"/>
    <rect x="416" y="392" width="24" height="24" rx="6"/>
    <rect x="496" y="392" width="24" height="24" rx="6"/>

    <rect x="272" y="456" width="24" height="24" rx="6"/>
    <rect x="312" y="456" width="24" height="24" rx="6"/>
    <rect x="352" y="456" width="24" height="24" rx="6"/>
    <rect x="392" y="456" width="24" height="24" rx="6"/>
    <rect x="272" y="496" width="24" height="24" rx="6"/>
    <rect x="392" y="496" width="24" height="24" rx="6"/>
    <rect x="312" y="536" width="24" height="24" rx="6"/>
    <rect x="352" y="536" width="24" height="24" rx="6"/>
  </g>

  <!-- center mark -->
  <g>
    <rect x="250" y="250" width="140" height="140" rx="22" fill="#fff"/>
    <path d="M320 286c-18 0-33 7-45 20l14 14c8-8 19-13 31-13s23 5 31 13l14-14c-12-13-27-20-45-20zm-54 76h108v-18H338v-56h-36v56h-36v18z" fill="#2b0607"/>
  </g>
</svg>

